<svg width="73" height="71" viewBox="0 0 73 71" fill="none" xmlns="http://www.w3.org/2000/svg">
<rect width="72.0923" height="71" rx="35.5" fill="#36C768"/>
<g clip-path="url(#clip0_207_17)">
<path d="M20.0982 54.5303L17 17L54 17.0754L50.724 54.5303L35.6396 58.8597L20.0982 54.5303Z" fill="#F0F0F0"/>
<path d="M35.6396 55.3053V20.6444L50.8765 20.6947L48.1594 51.7056L35.6396 55.3053Z" fill="white"/>
<path d="M34.0078 24.76H29.9796V47.8294L26.8465 47.2379V44.1324L23.1167 43.5409V50.4912L34.0078 53.301V24.76ZM37.0296 24.76H48.1812L47.4352 29.1816H41.2867V36.4376H47.4352L46.6893 51.0828L37.0296 53.301V48.7167L43.5562 46.4985L43.9331 40.4354L37.0296 41.4262V24.76Z" fill="#36C768"/>
</g>
<defs>
<clipPath id="clip0_207_17">
<rect width="37" height="42" fill="white" transform="translate(17 17)"/>
</clipPath>
</defs>
</svg>

