<svg width="70" height="79" viewBox="0 0 70 79" fill="none" xmlns="http://www.w3.org/2000/svg">
<path d="M31.8947 1.54358C33.7752 0.439141 36.2246 0.434153 38.1035 1.54358C47.5562 7.02392 57.0119 12.4957 66.4629 17.9793C68.2405 19.0067 69.4296 21.0366 69.4115 23.1382V56.11C69.4247 58.2986 68.1182 60.377 66.2428 61.3811C56.8212 66.8312 47.4044 72.288 37.9844 77.7381C36.065 78.8642 33.5664 78.7774 31.7069 77.5591C28.8824 75.879 26.0529 74.2073 23.228 72.5288C22.6508 72.1758 22.0001 71.8947 21.5925 71.3205C21.9528 70.8222 22.5971 70.7601 23.1205 70.5425C24.2996 70.1578 25.3825 69.5404 26.4656 68.9412C26.7395 68.7488 27.0739 68.8225 27.3365 68.9947C29.7519 70.4156 32.1459 71.8778 34.5694 73.2852C35.0864 73.5914 35.6098 73.1849 36.0518 72.9321C45.2972 67.5707 54.5541 62.2294 63.7979 56.8663C64.1405 56.6973 64.3298 56.3242 64.302 55.9393C64.3085 45.0626 64.3036 34.1839 64.3052 23.3072C64.3444 22.8705 64.098 22.4689 63.7131 22.2901C54.3242 16.8649 44.9401 11.4314 35.5528 6.00484C35.3902 5.89012 35.1975 5.82856 35.0002 5.82826C34.8028 5.82797 34.61 5.88894 34.447 6.00318C25.0597 11.4314 15.6773 16.8699 6.28995 22.2948C5.90639 22.4739 5.64897 22.8688 5.69462 23.3072C5.69624 34.1839 5.69462 45.0626 5.69462 55.9409C5.67834 56.1288 5.71855 56.3172 5.80982 56.4809C5.9011 56.6446 6.03906 56.7756 6.20514 56.8564C8.71018 58.3139 11.2185 59.7612 13.7251 61.2137C15.1373 61.9936 16.8712 62.457 18.427 61.8595C19.8 61.3542 20.7624 59.9166 20.7362 58.4209C20.7492 47.6076 20.7298 36.7927 20.746 25.9812C20.7117 25.5011 21.1555 25.1045 21.6103 25.1497C22.814 25.1414 24.0192 25.1331 25.2228 25.153C25.7253 25.1414 26.071 25.6583 26.0089 26.1419C26.004 37.0236 26.0218 47.9056 26.0008 58.7873C26.004 61.6873 24.8428 64.843 22.2283 66.262C19.0075 67.9739 15.0265 67.6108 11.8446 65.9693C9.08996 64.5586 6.46121 62.8938 3.75546 61.3825C1.87519 60.3839 0.575132 58.2973 0.588367 56.1103V23.1382C0.568649 20.993 1.80496 18.9263 3.63796 17.9139C13.058 12.4594 22.4763 7.00064 31.8947 1.54358Z" fill="#8CC84B"/>
<path d="M40.1124 24.3834C44.2208 24.112 48.6191 24.2226 52.3162 26.2993C55.1786 27.8907 56.7655 31.2306 56.816 34.4935C56.7361 34.9336 56.2877 35.1764 55.8782 35.1461C54.6862 35.1445 53.4939 35.1628 52.3019 35.1378C51.7962 35.1578 51.5023 34.6794 51.4389 34.2207C51.0964 32.6596 50.2666 31.1134 48.8344 30.3603C46.6359 29.231 44.0869 29.2878 41.6896 29.3113C39.9395 29.4067 38.0576 29.5622 36.575 30.6181C35.4367 31.4179 35.091 33.0326 35.4972 34.333C35.8802 35.2667 36.9307 35.568 37.7902 35.8457C42.7414 37.1743 47.9881 37.0421 52.8448 38.7907C54.8555 39.5035 56.8225 40.8892 57.5108 43.0493C58.4111 45.9444 58.0164 49.4049 56.0089 51.7291C54.381 53.6417 52.0099 54.6826 49.645 55.248C46.499 55.9678 43.2341 55.9861 40.0392 55.6665C37.035 55.3151 33.9087 54.5053 31.5895 52.405C29.6063 50.6382 28.6377 47.8853 28.7338 45.2283C28.7568 44.7796 29.1922 44.4667 29.6111 44.5035C30.8115 44.4935 32.0119 44.4902 33.2123 44.5052C33.6918 44.47 34.0472 44.8951 34.0718 45.3588C34.2933 46.8463 34.8381 48.4074 36.1023 49.2893C38.542 50.9043 41.6032 50.7937 44.3967 50.8389C46.711 50.7335 49.309 50.7017 51.1976 49.1322C52.1941 48.237 52.4893 46.7393 52.22 45.4508C51.9283 44.363 50.8192 43.8561 49.8668 43.5246C44.9791 41.9382 39.6737 42.5139 34.8333 40.7199C32.8682 40.0073 30.9679 38.6601 30.213 36.5887C29.1595 33.657 29.6422 30.0308 31.8601 27.7851C34.0227 25.5513 37.1444 24.691 40.1124 24.3831V24.3834Z" fill="#8CC84B"/>
</svg>
