<svg width="82" height="74" viewBox="0 0 82 74" fill="none" xmlns="http://www.w3.org/2000/svg">
<path d="M82 36.5206C82 31.0885 75.1973 25.9405 64.7676 22.7481C67.1745 12.1178 66.1048 3.66042 61.3914 0.952711C60.3049 0.31757 59.0346 0.016714 57.6474 0.016714V3.74399C58.4162 3.74399 59.0347 3.89442 59.5528 4.17856C61.8259 5.48227 62.8121 10.4464 62.0432 16.8312C61.8594 18.4024 61.5585 20.0571 61.1908 21.7452C57.9148 20.9429 54.338 20.3245 50.5773 19.9234C48.3208 16.8312 45.9808 14.0232 43.6241 11.5662C49.073 6.50184 54.1875 3.72727 57.6641 3.72727V0C53.0677 0 47.0506 3.27599 40.9666 8.95883C34.8826 3.30942 28.8655 0.0668572 24.2691 0.0668572V3.79413C27.7289 3.79413 32.8602 6.55198 38.309 11.583C35.969 14.04 33.629 16.8312 31.406 19.9234C27.6286 20.3245 24.0518 20.9429 20.7758 21.7619C20.3914 20.0905 20.1072 18.4692 19.9066 16.9148C19.1211 10.53 20.0905 5.56584 22.3469 4.24541C22.8484 3.94456 23.5002 3.81084 24.2691 3.81084V0.0835712C22.8651 0.0835712 21.5948 0.384427 20.4916 1.01957C15.7949 3.72727 14.7419 12.168 17.1655 22.7648C6.76926 25.9739 0 31.1052 0 36.5206C0 41.9527 6.80269 47.1007 17.2324 50.2931C14.8255 60.9234 15.8952 69.3808 20.6086 72.0885C21.6951 72.7236 22.9654 73.0245 24.3693 73.0245C28.9658 73.0245 34.9829 69.7485 41.0669 64.0656C47.1508 69.715 53.168 72.9576 57.7644 72.9576C59.1684 72.9576 60.4387 72.6568 61.5418 72.0216C66.2385 69.3139 67.2915 60.8732 64.8679 50.2764C75.2307 47.084 82 41.936 82 36.5206ZM60.2381 25.3722C59.6196 27.5283 58.8508 29.7513 57.9817 31.9743C57.2964 30.6372 56.5777 29.3 55.7921 27.9629C55.0232 26.6258 54.2042 25.3221 53.3853 24.0518C55.7587 24.4028 58.0485 24.8373 60.2381 25.3722ZM52.583 43.1729C51.2792 45.4293 49.9421 47.5687 48.5548 49.5577C46.0644 49.775 43.5406 49.892 41 49.892C38.4762 49.892 35.9523 49.775 33.4786 49.5744C32.0913 47.5854 30.7375 45.4627 29.4338 43.223C28.1635 41.0334 27.0102 38.8104 25.9572 36.5707C26.9935 34.331 28.1635 32.0913 29.417 29.9018C30.7208 27.6453 32.0579 25.5059 33.4452 23.5169C35.9356 23.2996 38.4594 23.1826 41 23.1826C43.5239 23.1826 46.0477 23.2996 48.5214 23.5002C49.9087 25.4892 51.2625 27.6119 52.5662 29.8516C53.8365 32.0412 54.9898 34.2642 56.0428 36.5039C54.9898 38.7436 53.8365 40.9833 52.583 43.1729ZM57.9817 41C58.8842 43.2397 59.6531 45.4794 60.2882 47.6523C58.0987 48.1871 55.7921 48.6384 53.402 48.9894C54.221 47.7024 55.04 46.382 55.8088 45.0281C56.5777 43.691 57.2964 42.3371 57.9817 41ZM41.0334 58.8341C39.479 57.2295 37.9246 55.4411 36.3869 53.4855C37.8912 53.5524 39.4289 53.6025 40.9833 53.6025C42.5544 53.6025 44.1088 53.5691 45.6298 53.4855C44.1256 55.4411 42.5711 57.2295 41.0334 58.8341ZM28.598 48.9894C26.2246 48.6384 23.9348 48.2038 21.7452 47.669C22.3636 45.5129 23.1325 43.2899 24.0016 41.0669C24.6869 42.404 25.4056 43.7411 26.1912 45.0783C26.9768 46.4154 27.779 47.7191 28.598 48.9894ZM40.9499 14.2071C42.5043 15.8117 44.0587 17.6001 45.5964 19.5556C44.0921 19.4888 42.5544 19.4387 41 19.4387C39.4289 19.4387 37.8744 19.4721 36.3535 19.5556C37.8577 17.6001 39.4122 15.8117 40.9499 14.2071ZM28.5813 24.0518C27.7623 25.3388 26.9433 26.6592 26.1745 28.0131C25.4056 29.3502 24.6869 30.6873 24.0016 32.0245C23.0991 29.7848 22.3302 27.5451 21.6951 25.3722C23.8846 24.8541 26.1912 24.4028 28.5813 24.0518ZM13.455 44.978C7.53812 42.4541 3.71056 39.1447 3.71056 36.5206C3.71056 33.8965 7.53812 30.5703 13.455 28.0632C14.8924 27.4448 16.4635 26.8932 18.0848 26.3751C19.0375 29.651 20.2911 33.0607 21.8455 36.554C20.3078 40.0306 19.0709 43.4236 18.1349 46.6828C16.4802 46.1647 14.9091 45.5964 13.455 44.978ZM22.4472 68.8626C20.1741 67.5589 19.1879 62.5948 19.9568 56.21C20.1406 54.6388 20.4415 52.9841 20.8092 51.296C24.0852 52.0983 27.6621 52.7167 31.4228 53.1178C33.6792 56.21 36.0192 59.0179 38.3759 61.4749C32.927 66.5394 27.8125 69.3139 24.3359 69.3139C23.5838 69.2972 22.9486 69.1468 22.4472 68.8626ZM62.0934 56.1264C62.8789 62.5112 61.9095 67.4753 59.6531 68.7958C59.1516 69.0966 58.4998 69.2303 57.7309 69.2303C54.2711 69.2303 49.1398 66.4725 43.691 61.4415C46.031 58.9845 48.371 56.1932 50.594 53.1011C54.3714 52.7 57.9482 52.0815 61.2242 51.2625C61.6086 52.9507 61.9095 54.572 62.0934 56.1264ZM68.5283 44.978C67.0909 45.5964 65.5198 46.148 63.8985 46.6661C62.9458 43.3901 61.6922 39.9804 60.1378 36.4872C61.6755 33.0106 62.9124 29.6176 63.8484 26.3583C65.5031 26.8765 67.0742 27.4448 68.5451 28.0632C74.4619 30.587 78.2894 33.8965 78.2894 36.5206C78.2727 39.1447 74.4452 42.4709 68.5283 44.978Z" fill="#61DAFB"/>
<path d="M41.2793 44.159C45.4978 44.159 48.9177 40.7392 48.9177 36.5206C48.9177 32.302 45.4978 28.8822 41.2793 28.8822C37.0607 28.8822 33.6409 32.302 33.6409 36.5206C33.6409 40.7392 37.0607 44.159 41.2793 44.159Z" fill="#61DAFB"/>
</svg>
