<svg width="73" height="71" viewBox="0 0 73 71" fill="none" xmlns="http://www.w3.org/2000/svg">
<rect width="72.0923" height="71" rx="35.5" fill="#36C768"/>
<g clip-path="url(#clip0_207_27)">
<path d="M17 38V19H55V57H17" fill="white"/>
<path d="M25.3315 38.0665V39.615H30.2715V53.675H33.777V39.615H38.717V38.095C38.717 37.24 38.717 36.5465 38.679 36.5275C38.679 36.499 35.6675 36.4895 32.01 36.4895L25.36 36.518V38.076L25.3315 38.0665V38.0665ZM47.533 36.48C48.502 36.708 49.243 37.145 49.908 37.8385C50.2595 38.2185 50.782 38.8835 50.82 39.0545C50.82 39.1115 49.1765 40.223 48.179 40.8405C48.141 40.869 47.989 40.7075 47.837 40.4605C47.343 39.7575 46.8395 39.4535 46.051 39.3965C44.911 39.3205 44.151 39.919 44.151 40.9165C44.151 41.2205 44.208 41.3915 44.322 41.6385C44.5785 42.161 45.0535 42.4745 46.526 43.1205C49.243 44.289 50.421 45.0585 51.1335 46.1605C51.941 47.3955 52.1215 49.3335 51.58 50.787C50.972 52.3735 49.49 53.447 47.3715 53.7985C46.7065 53.9125 45.1865 53.8935 44.474 53.77C42.954 53.485 41.5005 52.725 40.6075 51.7465C40.256 51.3665 39.5815 50.35 39.6195 50.2835L39.9805 50.0555L41.4055 49.229L42.479 48.602L42.726 48.9345C43.0395 49.4285 43.7425 50.0935 44.151 50.3215C45.386 50.958 47.039 50.8725 47.856 50.1315C48.2075 49.8085 48.3595 49.4665 48.3595 48.9915C48.3595 48.5545 48.293 48.355 48.0745 48.0225C47.7705 47.6045 47.1625 47.2625 45.4525 46.5025C43.486 45.6665 42.65 45.1345 41.871 44.3175C41.4245 43.8235 41.016 43.054 40.826 42.4175C40.6835 41.8665 40.636 40.5175 40.769 39.976C41.1775 38.076 42.612 36.746 44.664 36.366C45.329 36.233 46.8965 36.29 47.552 36.461L47.533 36.48V36.48Z" fill="#36C768"/>
</g>
<defs>
<clipPath id="clip0_207_27">
<rect x="17" y="19" width="38" height="38" rx="3" fill="white"/>
</clipPath>
</defs>
</svg>
